<svg width="76" height="76" viewBox="0 0 76 76" fill="none" xmlns="http://www.w3.org/2000/svg">
<mask id="mask0_4004_2272" style="mask-type:luminance" maskUnits="userSpaceOnUse" x="0" y="0" width="76" height="76">
<path d="M75.1053 0.911377H0.439514V75.5772H75.1053V0.911377Z" fill="white"/>
</mask>
<g mask="url(#mask0_4004_2272)">
<path d="M57.6833 0.911377H17.8615C8.23962 0.911377 0.439514 8.71148 0.439514 18.3334V58.1551C0.439514 67.7771 8.23962 75.5772 17.8615 75.5772H57.6833C67.3052 75.5772 75.1053 67.7771 75.1053 58.1551V18.3334C75.1053 8.71148 67.3052 0.911377 57.6833 0.911377Z" fill="#00BC73"/>
<path fill-rule="evenodd" clip-rule="evenodd" d="M32.1725 18.3336H0.439575V26.0491H32.1725C35.8151 26.0491 38.768 29.002 38.768 32.6446C38.768 36.2871 35.8151 39.24 32.1725 39.24H0.439575V46.9555H32.1725C40.0763 46.9555 46.4835 40.5483 46.4835 32.6446C46.4835 24.7409 40.0763 18.3336 32.1725 18.3336ZM35.5325 32.6446C35.5325 34.5002 34.0282 36.0045 32.1725 36.0045C30.3169 36.0045 28.8126 34.5002 28.8126 32.6446C28.8126 30.7889 30.3169 29.2846 32.1725 29.2846C34.0282 29.2846 35.5325 30.7889 35.5325 32.6446ZM24.2604 50.191C23.505 50.191 23.0625 51.0416 23.4962 51.6601L36.4982 70.2021C36.6729 70.4516 36.9581 70.5997 37.2624 70.5997H44.6891C45.4445 70.5997 45.887 69.7491 45.4533 69.1306L32.4512 50.5886C32.2766 50.3391 31.9913 50.191 31.6871 50.191H24.2604Z" fill="white"/>
</g>
</svg>
