<svg width="221" height="42" viewBox="0 0 221 42" fill="none" xmlns="http://www.w3.org/2000/svg">
<g clip-path="url(#clip0_4004_2155)">
<path fill-rule="evenodd" clip-rule="evenodd" d="M0 1.66321H17.6706C22.0718 1.66321 25.6396 5.2311 25.6396 9.63229C25.6396 14.0335 22.0718 17.6014 17.6706 17.6014H0V13.305H17.6706C19.6989 13.305 21.3433 11.6607 21.3433 9.63229C21.3433 7.60391 19.6989 5.95958 17.6706 5.95958H0V1.66321ZM17.6706 11.5033C18.7039 11.5033 19.5416 10.6656 19.5416 9.63229C19.5416 8.59897 18.7039 7.76128 17.6706 7.76128C16.6373 7.76128 15.7996 8.59897 15.7996 9.63229C15.7996 10.6656 16.6373 11.5033 17.6706 11.5033ZM0 19.8535C0 19.5665 0.232697 19.3338 0.519723 19.3338H3.77665C4.06368 19.3338 4.29637 19.5665 4.29637 19.8535V30.1786C4.29637 30.4655 4.06368 30.6984 3.77665 30.6984H0.519723C0.232697 30.6984 0 30.4655 0 30.1786V19.8535ZM13.2647 19.4031C12.844 19.4031 12.5976 19.8767 12.8391 20.2212L20.0793 30.5463C20.1766 30.6852 20.3354 30.7677 20.5049 30.7677H24.6404C25.0611 30.7677 25.3075 30.294 25.066 29.9496L17.8258 19.6244C17.7285 19.4857 17.5697 19.4031 17.4002 19.4031H13.2647Z" fill="#00BC73"/>
<path d="M50.7524 18.7516C50.7524 19.5831 50.6969 20.3315 50.5861 20.9968H33.7471C33.8857 22.6599 34.4677 23.9627 35.4933 24.9051C36.5189 25.8475 37.7801 26.3187 39.2769 26.3187C41.439 26.3187 42.9773 25.3902 43.892 23.533H50.1703C49.505 25.7505 48.23 27.5799 46.3451 29.0213C44.4603 30.4349 42.1458 31.1418 39.4016 31.1418C37.1842 31.1418 35.1884 30.6567 33.4144 29.6866C31.6682 28.6887 30.2961 27.2889 29.2982 25.4872C28.3281 23.6855 27.843 21.6066 27.843 19.2505C27.843 16.8667 28.3281 14.774 29.2982 12.9723C30.2684 11.1706 31.6266 9.78464 33.3729 8.81449C35.1191 7.84434 37.1287 7.35927 39.4016 7.35927C41.5914 7.35927 43.5456 7.83049 45.2641 8.77292C47.0104 9.71535 48.3547 11.0597 49.2972 12.806C50.2673 14.5245 50.7524 16.5064 50.7524 18.7516ZM44.7236 17.0885C44.6959 15.5917 44.1554 14.3998 43.1021 13.5128C42.0488 12.5981 40.7599 12.1407 39.2353 12.1407C37.794 12.1407 36.5744 12.5842 35.5765 13.4712C34.6063 14.3305 34.0104 15.5362 33.7886 17.0885H44.7236ZM53.0884 19.1674C53.0884 16.839 53.5457 14.774 54.4604 12.9723C55.4032 11.1706 56.6644 9.78464 58.2444 8.81449C59.852 7.84434 61.6399 7.35927 63.6079 7.35927C65.3264 7.35927 66.8232 7.70575 68.0983 8.39872C69.4011 9.09168 70.4405 9.96481 71.2166 11.0181V7.73347H77.0791V30.7676H71.2166V27.3998C70.4682 28.4808 69.4288 29.3816 68.0983 30.1023C66.7955 30.7953 65.2849 31.1418 63.5663 31.1418C61.626 31.1418 59.852 30.6428 58.2444 29.645C56.6644 28.6471 55.4032 27.2473 54.4604 25.4456C53.5457 23.6162 53.0884 21.5234 53.0884 19.1674ZM71.2166 19.2505C71.2166 17.8369 70.9394 16.6311 70.3851 15.6333C69.8307 14.6077 69.0823 13.8315 68.1399 13.3049C67.1974 12.7505 66.1857 12.4733 65.1047 12.4733C64.0237 12.4733 63.0258 12.7367 62.1107 13.2633C61.1964 13.79 60.448 14.5661 59.8659 15.5917C59.3115 16.5895 59.0343 17.7814 59.0343 19.1674C59.0343 20.5533 59.3115 21.7729 59.8659 22.8262C60.448 23.8518 61.1964 24.6418 62.1107 25.1961C63.0535 25.7505 64.0514 26.0277 65.1047 26.0277C66.1857 26.0277 67.1974 25.7644 68.1399 25.2377C69.0823 24.6834 69.8307 23.9072 70.3851 22.9094C70.9394 21.8838 71.2166 20.6642 71.2166 19.2505ZM88.1693 0V30.7676H82.3484V0H88.1693ZM103.525 31.0586C101.501 31.0586 99.6718 30.7121 98.0364 30.0192C96.4287 29.3262 95.1536 28.3283 94.2112 27.0256C93.2688 25.7228 92.7837 24.1844 92.756 22.4104H98.9927C99.0758 23.6023 99.4916 24.5448 100.24 25.2377C101.016 25.9307 102.069 26.2772 103.4 26.2772C104.758 26.2772 105.825 25.9584 106.601 25.3209C107.378 24.6556 107.766 23.7964 107.766 22.7431C107.766 21.8838 107.502 21.177 106.976 20.6226C106.449 20.0682 105.784 19.6386 104.98 19.3337C104.204 19.0011 103.123 18.6407 101.737 18.2527C99.8519 17.6983 98.3136 17.1578 97.1217 16.6311C95.9575 16.0767 94.9458 15.2591 94.0865 14.178C93.2549 13.0693 92.8391 11.6002 92.8391 9.77078C92.8391 8.05223 93.2688 6.55543 94.1281 5.28038C94.9873 4.00533 96.1931 3.03518 97.7453 2.36993C99.2976 1.67697 101.072 1.33049 103.067 1.33049C106.061 1.33049 108.486 2.06503 110.343 3.53411C112.228 4.97548 113.268 6.99893 113.462 9.60447H107.059C107.003 8.6066 106.574 7.78891 105.77 7.15138C104.994 6.48614 103.954 6.15351 102.652 6.15351C101.515 6.15351 100.6 6.44456 99.9074 7.02665C99.2421 7.60874 98.9095 8.45415 98.9095 9.56289C98.9095 10.339 99.159 10.9904 99.6579 11.517C100.185 12.016 100.822 12.4318 101.57 12.7644C102.347 13.0693 103.428 13.4296 104.814 13.8454C106.698 14.3998 108.237 14.9541 109.429 15.5085C110.621 16.0629 111.646 16.8944 112.505 18.0032C113.365 19.1119 113.794 20.5672 113.794 22.3689C113.794 23.9211 113.392 25.3625 112.589 26.6929C111.785 28.0234 110.607 29.0906 109.054 29.8944C107.502 30.6706 105.659 31.0586 103.525 31.0586ZM124.246 11.0597C124.994 10.0064 126.02 9.13326 127.323 8.44029C128.653 7.71961 130.164 7.35927 131.855 7.35927C133.823 7.35927 135.597 7.84434 137.177 8.81449C138.784 9.78464 140.046 11.1706 140.96 12.9723C141.903 14.7463 142.374 16.8113 142.374 19.1674C142.374 21.5234 141.903 23.6162 140.96 25.4456C140.046 27.2473 138.784 28.6471 137.177 29.645C135.597 30.6428 133.823 31.1418 131.855 31.1418C130.164 31.1418 128.667 30.7953 127.364 30.1023C126.089 29.4094 125.05 28.5362 124.246 27.4829V41.7441H118.425V7.73347H124.246V11.0597ZM136.428 19.1674C136.428 17.7814 136.137 16.5895 135.555 15.5917C135.001 14.5661 134.252 13.79 133.31 13.2633C132.395 12.7367 131.397 12.4733 130.316 12.4733C129.263 12.4733 128.265 12.7505 127.323 13.3049C126.408 13.8315 125.66 14.6077 125.078 15.6333C124.523 16.6588 124.246 17.8646 124.246 19.2505C124.246 20.6364 124.523 21.8422 125.078 22.8678C125.66 23.8934 126.408 24.6834 127.323 25.2377C128.265 25.7644 129.263 26.0277 130.316 26.0277C131.397 26.0277 132.395 25.7505 133.31 25.1961C134.252 24.6418 135.001 23.8518 135.555 22.8262C136.137 21.8006 136.428 20.581 136.428 19.1674ZM167.601 18.7516C167.601 19.5831 167.545 20.3315 167.434 20.9968H150.595C150.734 22.6599 151.316 23.9627 152.341 24.9051C153.367 25.8475 154.628 26.3187 156.125 26.3187C158.287 26.3187 159.825 25.3902 160.74 23.533H167.018C166.353 25.7505 165.078 27.5799 163.193 29.0213C161.308 30.4349 158.994 31.1418 156.25 31.1418C154.032 31.1418 152.037 30.6567 150.263 29.6866C148.516 28.6887 147.144 27.2889 146.146 25.4872C145.176 23.6855 144.691 21.6066 144.691 19.2505C144.691 16.8667 145.176 14.774 146.146 12.9723C147.117 11.1706 148.475 9.78464 150.221 8.81449C151.967 7.84434 153.977 7.35927 156.25 7.35927C158.44 7.35927 160.394 7.83049 162.112 8.77292C163.859 9.71535 165.203 11.0597 166.145 12.806C167.115 14.5245 167.601 16.5064 167.601 18.7516ZM161.572 17.0885C161.544 15.5917 161.004 14.3998 159.95 13.5128C158.897 12.5981 157.608 12.1407 156.083 12.1407C154.642 12.1407 153.423 12.5842 152.425 13.4712C151.454 14.3305 150.859 15.5362 150.637 17.0885H161.572ZM184.198 7.40085C186.942 7.40085 189.16 8.27398 190.85 10.0202C192.541 11.7388 193.387 14.1503 193.387 17.2548V30.7676H187.566V18.0448C187.566 16.2153 187.108 14.8156 186.194 13.8454C185.279 12.8475 184.032 12.3486 182.452 12.3486C180.844 12.3486 179.569 12.8475 178.627 13.8454C177.712 14.8156 177.255 16.2153 177.255 18.0448V30.7676H171.434V7.73347H177.255V10.6023C178.031 9.60447 179.015 8.82835 180.207 8.27398C181.426 7.69189 182.757 7.40085 184.198 7.40085ZM197.01 19.1674C197.01 16.839 197.467 14.774 198.382 12.9723C199.324 11.1706 200.599 9.78464 202.207 8.81449C203.814 7.84434 205.602 7.35927 207.57 7.35927C209.067 7.35927 210.495 7.69189 211.853 8.35714C213.211 8.99466 214.292 9.85394 215.096 10.935V0H221V30.7676H215.096V27.3582C214.375 28.4946 213.363 29.4094 212.061 30.1023C210.758 30.7953 209.247 31.1418 207.529 31.1418C205.588 31.1418 203.814 30.6428 202.207 29.645C200.599 28.6471 199.324 27.2473 198.382 25.4456C197.467 23.6162 197.01 21.5234 197.01 19.1674ZM215.137 19.2505C215.137 17.8369 214.86 16.6311 214.306 15.6333C213.752 14.6077 213.003 13.8315 212.061 13.3049C211.118 12.7505 210.107 12.4733 209.026 12.4733C207.944 12.4733 206.947 12.7367 206.032 13.2633C205.117 13.79 204.369 14.5661 203.787 15.5917C203.232 16.5895 202.955 17.7814 202.955 19.1674C202.955 20.5533 203.232 21.7729 203.787 22.8262C204.369 23.8518 205.117 24.6418 206.032 25.1961C206.974 25.7505 207.972 26.0277 209.026 26.0277C210.107 26.0277 211.118 25.7644 212.061 25.2377C213.003 24.6834 213.752 23.9072 214.306 22.9094C214.86 21.8838 215.137 20.6642 215.137 19.2505Z" fill="white"/>
</g>
<defs>
<clipPath id="clip0_4004_2155">
<rect width="221" height="41.7441" fill="white"/>
</clipPath>
</defs>
</svg>
