<svg width="70" height="69" viewBox="0 0 70 69" fill="none" xmlns="http://www.w3.org/2000/svg">
<g clip-path="url(#clip0_4004_2189)">
<path d="M21.2555 51.6071L20.9087 51.2603L21.2555 51.6071L29.0113 43.8514L45.7126 43.8514C48.9396 43.8514 51.5563 41.2347 51.5563 38.0077V17.4641C51.5563 14.2371 48.9396 11.6204 45.7126 11.6204H17.9775C14.7505 11.6204 12.1338 14.2371 12.1338 17.4641V38.0077C12.1338 41.2347 14.7505 43.8514 17.9775 43.8514H18.2943V50.3784C18.2943 51.0677 18.7068 51.7116 19.3705 51.9756C19.5686 52.0576 19.7926 52.111 20.0268 52.111C20.4724 52.111 20.9224 51.9402 21.2555 51.6071ZM27.0837 40.9026L21.7853 46.201V42.1313V41.9229L21.7582 41.8967C21.6485 41.0469 20.9187 40.3863 20.0399 40.3863H17.9905C16.684 40.3863 15.6119 39.3142 15.6119 38.0077V17.4641C15.6119 16.1576 16.684 15.0855 17.9905 15.0855H45.7256C47.0321 15.0855 48.1043 16.1576 48.1043 17.4641V38.0077C48.1043 39.3142 47.0321 40.3863 45.7256 40.3863H28.3124C28.0765 40.3863 27.851 40.4404 27.6518 40.5234C27.4482 40.6083 27.2566 40.7297 27.0837 40.9026C27.0837 40.9026 27.0837 40.9026 27.0837 40.9026Z" fill="#00BC73" stroke="#00BC73" stroke-width="0.980973"/>
<path d="M62.8724 60.2841H63.1892C66.4162 60.2841 69.0329 57.6674 69.0329 54.4404V33.8968C69.0329 30.6698 66.4162 28.0531 63.1892 28.0531H62.9914L62.9785 28.0655H53.9355C52.9815 28.0655 52.203 28.8441 52.203 29.7981C52.203 30.7521 52.9815 31.5306 53.9355 31.5306H63.1763C64.4828 31.5306 65.555 32.6027 65.555 33.9093V54.4528C65.555 55.7594 64.4828 56.8315 63.1763 56.8315H61.127C60.1729 56.8315 59.3944 57.61 59.3944 58.564V62.6337L54.096 57.3353C53.9481 57.1874 53.7575 57.0455 53.5219 56.9536C53.3242 56.872 53.1008 56.819 52.8673 56.819H35.4541C34.1476 56.819 33.0755 55.7469 33.0755 54.4404V46.2179C33.0755 45.2639 32.2969 44.4853 31.3429 44.4853C30.3889 44.4853 29.6104 45.2639 29.6104 46.2179V54.4404C29.6104 57.6674 32.2271 60.2841 35.4541 60.2841H52.1554L59.9112 68.0398C60.2443 68.3729 60.6943 68.5437 61.1399 68.5437C61.3445 68.5437 61.5808 68.5132 61.8134 68.4013C62.4481 68.1357 62.8724 67.5019 62.8724 66.8111V60.2841Z" fill="#00BC73" stroke="#00BC73" stroke-width="0.980973"/>
<path d="M61.1257 47.5785H36.4709C35.5168 47.5785 34.7383 48.357 34.7383 49.311C34.7383 50.2651 35.5168 51.0436 36.4709 51.0436H61.1257C62.0797 51.0436 62.8582 50.2651 62.8582 49.311C62.8582 48.357 62.0797 47.5785 61.1257 47.5785Z" fill="#00BC73" stroke="#00BC73" stroke-width="0.980973"/>
<path d="M53.9334 45.9011H61.1249C62.0789 45.9011 62.8574 45.1226 62.8574 44.1686C62.8574 43.2146 62.0789 42.4361 61.1249 42.4361H53.9334C52.9794 42.4361 52.2009 43.2146 52.2009 44.1686C52.2009 45.1226 52.9794 45.9011 53.9334 45.9011Z" fill="#00BC73" stroke="#00BC73" stroke-width="0.980973"/>
<path d="M53.9334 40.7707H61.1249C62.0789 40.7707 62.8574 39.9922 62.8574 39.0382C62.8574 38.0841 62.0789 37.3056 61.1249 37.3056H53.9334C52.9794 37.3056 52.2009 38.0841 52.2009 39.0382C52.2009 39.9922 52.9794 40.7707 53.9334 40.7707Z" fill="#00BC73" stroke="#00BC73" stroke-width="0.980973"/>
<path d="M17.5048 9.485C18.4588 9.485 19.2373 8.70649 19.2373 7.75247V2.20052C19.2373 1.24651 18.4588 0.467994 17.5048 0.467994C16.5508 0.467994 15.7723 1.24651 15.7723 2.20052V7.75247C15.7723 8.70649 16.5508 9.485 17.5048 9.485Z" fill="#00BC73" stroke="#00BC73" stroke-width="0.980973"/>
<path d="M12.1901 11.6856L12.1902 11.6857L12.1991 11.6768C12.875 11.0009 12.8751 9.90775 12.1991 9.23185L8.27426 5.30702L8.1306 5.16336H8.09918C7.42054 4.63506 6.44088 4.68293 5.81684 5.30705C5.14104 5.98294 5.14087 7.076 5.81687 7.75194C5.81687 7.75194 5.81688 7.75195 5.81689 7.75196L9.74172 11.6768C10.0899 12.0249 10.5288 12.1806 10.9704 12.1806C11.4233 12.1806 11.8536 12.0052 12.1901 11.6856Z" fill="#00BC73" stroke="#00BC73" stroke-width="0.980973"/>
<path d="M8.2523 15.2734H2.70035C1.74634 15.2734 0.967827 16.0519 0.967827 17.0059C0.967827 17.96 1.74634 18.7385 2.70035 18.7385H8.2523C9.20632 18.7385 9.98483 17.96 9.98483 17.0059C9.98483 16.0519 9.20632 15.2734 8.2523 15.2734Z" fill="#00BC73" stroke="#00BC73" stroke-width="0.980973"/>
<path d="M38.9301 35.7088L38.9301 35.7088L38.9289 35.7019L38.0538 30.628L41.744 27.0324L41.744 27.0325L41.7485 27.028C42.2111 26.5654 42.386 25.8897 42.1788 25.2505L42.1788 25.2505L42.1775 25.2467C41.9728 24.6326 41.4405 24.1607 40.774 24.0714L35.6784 23.3266L33.3954 18.7132L33.3945 18.7114C33.0807 18.0837 32.4289 17.8068 31.8396 17.8068C31.2511 17.8068 30.5995 18.0835 30.2922 18.7147C30.2919 18.7154 30.2916 18.716 30.2913 18.7166L28.0099 23.3266L22.9144 24.0714C22.2479 24.1607 21.7155 24.6326 21.5109 25.2467L21.9762 25.4018L21.5109 25.2467C21.3011 25.876 21.4776 26.5657 21.9398 27.0279L21.9398 27.028L21.9444 27.0324L25.6346 30.628L24.7594 35.7019L24.7594 35.7019L24.7583 35.7088C24.6554 36.3603 24.915 37.0015 25.4474 37.3964L25.4473 37.3965L25.4557 37.4024C25.9874 37.7798 26.6926 37.8345 27.2683 37.5378L27.2684 37.5379L27.2725 37.5357L31.838 35.1284L36.4014 37.5346C36.4018 37.5348 36.4023 37.5351 36.4027 37.5353C36.6745 37.6799 36.9558 37.7289 37.216 37.7289C37.5749 37.7289 37.9241 37.6248 38.2343 37.4013C38.7789 37.0138 39.0318 36.3532 38.9301 35.7088ZM28.7014 28.7754L26.8816 27.0002L29.412 26.6323L29.412 26.6323L29.4149 26.6319C29.9757 26.5469 30.467 26.2034 30.7151 25.6762L31.838 23.3949L32.9629 25.6804L32.9629 25.6804L32.9643 25.6832C33.2221 26.1988 33.7058 26.5451 34.2588 26.6315L34.2588 26.6316L34.264 26.6323L36.7835 26.9987L34.9622 28.7753C34.5404 29.1807 34.3743 29.7538 34.4581 30.3067L34.4581 30.3068L34.4596 30.3158L34.8882 32.8252L32.6383 31.6377L32.6383 31.6377L32.6347 31.6358C32.1332 31.3764 31.5304 31.3764 31.0289 31.6358L31.0289 31.6358L31.0253 31.6377L28.7753 32.8252L29.2034 30.3194C29.307 29.7585 29.1148 29.1727 28.7014 28.7754Z" fill="#00BC73" stroke="#00BC73" stroke-width="0.980973"/>
</g>
<defs>
<clipPath id="clip0_4004_2189">
<rect width="69" height="69" fill="white" transform="translate(0.5)"/>
</clipPath>
</defs>
</svg>
