<svg width="69" height="69" viewBox="0 0 69 69" fill="none" xmlns="http://www.w3.org/2000/svg">
<path d="M30.8496 36.2449L30.8499 36.2451L40.5529 43.7284L40.5533 43.7287C40.9929 44.0665 41.5118 44.2336 42.0287 44.2336C42.7541 44.2336 43.4693 43.9082 43.9472 43.2906L43.9475 43.2903C44.7648 42.2311 44.5654 40.7126 43.5097 39.8959L43.5094 39.8957L34.7472 33.1382L34.7472 19.5886L34.7472 19.5881C34.7445 18.2531 33.662 17.1671 32.3257 17.1671C30.9898 17.1671 29.9066 18.2503 29.9066 19.5862V34.3287C29.9066 35.0792 30.2563 35.7858 30.8496 36.2449Z" fill="#00BC73" stroke="#00BC73" stroke-width="0.5"/>
<path d="M63.9365 26.6347L63.9366 26.6345C64.7663 25.5901 66.285 25.406 67.3342 26.2424M63.9365 26.6347L67.3346 26.2427C67.3345 26.2426 67.3343 26.2425 67.3342 26.2424M63.9365 26.6347L63.142 27.6367C60.0413 13.4752 47.3107 2.75 32.3288 2.75C14.9176 2.75 0.75 16.9176 0.75 34.3288C0.75 51.74 14.9176 65.9076 32.3288 65.9076C44.0185 65.9076 54.6909 59.5013 60.1836 49.1889C60.8125 48.0112 60.366 46.5466 59.1866 45.9177C58.0084 45.2883 56.5413 45.7403 55.9151 46.9148L55.915 46.9148M63.9365 26.6347L55.915 46.9148M67.3342 26.2424C68.3797 27.0704 68.5571 28.5918 67.7264 29.6376M67.3342 26.2424L67.7264 29.6376M67.7264 29.6376L63.3451 35.1684L67.7264 29.6376ZM55.915 46.9148C51.2636 55.6446 42.2287 61.067 32.3288 61.067C17.5845 61.067 5.58817 49.073 5.58817 34.3288C5.58817 19.5846 17.5845 7.59058 32.3288 7.59058C44.8073 7.59058 55.4564 16.3793 58.298 28.0858L57.4222 27.3925C57.422 27.3924 57.4219 27.3923 57.4217 27.3922C56.372 26.5528 54.8532 26.7401 54.0239 27.7841C53.1929 28.8302 53.3708 30.3515 54.416 31.1817L54.4163 31.182M55.915 46.9148L54.4163 31.182M54.4163 31.182L59.9465 35.5628M54.4163 31.182L59.9465 35.5628M59.9465 35.5628C59.9467 35.5629 59.9469 35.5631 59.9471 35.5632M59.9465 35.5628L59.9471 35.5632M59.9471 35.5632C60.3912 35.9183 60.9215 36.0875 61.4475 36.0875C62.162 36.0875 62.8668 35.7729 63.345 35.1685L59.9471 35.5632Z" fill="#00BC73" stroke="#00BC73" stroke-width="0.5"/>
</svg>
