<svg width="70" height="69" viewBox="0 0 70 69" fill="none" xmlns="http://www.w3.org/2000/svg">
<g clip-path="url(#clip0_4004_2205)">
<path d="M27.4963 61.9137L27.2133 62.1964L27.4963 61.9137ZM27.4963 61.9137L27.2134 62.1965C27.393 62.3762 27.6061 62.5187 27.8407 62.6159C28.0754 62.7132 28.3269 62.7632 28.5809 62.7632H40.8536C41.1076 62.7632 41.3591 62.7132 41.5938 62.6159C41.8284 62.5187 42.0416 62.3762 42.2211 62.1965C42.2211 62.1965 42.2212 62.1964 42.2212 62.1964L43.7551 60.6625L27.4963 61.9137ZM44.7248 52.2178L44.9115 52.5716C44.9114 52.5716 44.9113 52.5717 44.9112 52.5717C44.7327 52.666 44.5834 52.8074 44.4795 52.9805C44.3755 53.1537 44.321 53.352 44.3218 53.554L44.3218 53.5556L44.3218 59.295V59.2951C44.3217 59.808 44.1178 60.2998 43.7552 60.6624L18.0855 19.6159C20.5411 16.6133 23.764 14.3317 27.412 13.0133C31.06 11.6949 34.9969 11.3889 38.8047 12.1278C42.6126 12.8667 46.1493 14.623 49.0394 17.2101M44.7248 52.2178C47.7911 50.603 50.4211 48.2703 52.3903 45.4187C54.3594 42.567 55.6093 39.2812 56.0332 35.8418C56.4571 32.4024 56.0425 28.9114 54.8246 25.667C53.6067 22.4226 51.6219 19.521 49.0394 17.2101M44.7248 52.2178C44.4815 52.3462 44.2781 52.5388 44.1365 52.7746C43.995 53.0105 43.9207 53.2806 43.9218 53.5556L44.7248 52.2178ZM49.0394 17.2101L49.3062 16.9121M49.0394 17.2101L49.3062 16.912C49.3062 16.912 49.3062 16.9121 49.3062 16.9121M49.3062 16.9121C46.3623 14.2768 42.7597 12.4878 38.8809 11.7351C35.0022 10.9825 30.9919 11.2942 27.276 12.6371C23.5601 13.9801 20.2772 16.3042 17.7759 19.3627C15.2746 22.421 13.6482 26.0995 13.0691 30.0077M49.3062 16.9121L13.0691 30.0077M13.0691 30.0077C12.3863 34.494 13.1237 39.0816 15.178 43.1279C17.2323 47.1741 20.5006 50.4765 24.5253 52.5727L13.0691 30.0077ZM25.5127 53.5556V59.295L25.2984 52.7753C25.4397 53.011 25.5138 53.2809 25.5127 53.5556ZM25.6794 60.6624C25.6794 60.6624 25.6794 60.6625 25.6794 60.6625L25.9622 60.3796L25.6794 60.6624ZM41.2807 50.8008C40.8884 51.3926 40.6283 52.0604 40.5164 52.7586H28.9182C28.8063 52.0607 28.5465 51.3931 28.1544 50.8015C27.6943 50.1072 27.0668 49.5398 26.3299 49.1515L26.3283 49.1507C23.0134 47.4232 20.3219 44.7021 18.6309 41.3684C16.9399 38.0348 16.3341 34.2558 16.8984 30.5607C17.4981 26.6472 19.3638 23.0381 22.2098 20.2858C25.0557 17.5336 28.7249 15.7898 32.656 15.3212C36.8302 14.8407 41.041 15.8348 44.5597 18.1313C48.0785 20.428 50.6836 23.8828 51.9239 27.8976C53.1642 31.9124 52.9617 36.2346 51.3514 40.1158C49.7412 43.9971 46.8244 47.1931 43.1063 49.1507C42.3689 49.5389 41.7411 50.1063 41.2807 50.8008ZM40.4536 56.6268V58.4941L40.0527 58.895H29.3818L28.9809 58.4941V56.6268H40.4536Z" fill="#00BC73" stroke="#00BC73" stroke-width="0.8"/>
<path d="M39.317 65.032H30.1125C29.5995 65.032 29.1076 65.2358 28.7449 65.5985C28.3821 65.9612 28.1784 66.4532 28.1784 66.9661C28.1784 67.4791 28.3821 67.971 28.7449 68.3337C29.1076 68.6965 29.5995 68.9002 30.1125 68.9002H39.317C39.83 68.9002 40.3219 68.6965 40.6846 68.3337C41.0473 67.971 41.2511 67.4791 41.2511 66.9661C41.2511 66.4532 41.0473 65.9612 40.6846 65.5985C40.3219 65.2358 39.83 65.032 39.317 65.032Z" fill="#00BC73" stroke="#00BC73" stroke-width="0.8"/>
<path d="M35.4553 8.92336C35.2206 9.02051 34.9692 9.07049 34.7152 9.07046L35.4553 8.92336ZM35.4553 8.92336C35.69 8.82618 35.9032 8.68371 36.0828 8.50409M35.4553 8.92336L36.0828 8.50409M36.0828 8.50409C36.2625 8.32447 36.4049 8.11122 36.5021 7.87652M36.0828 8.50409L36.5021 7.87652M36.5021 7.87652C36.5993 7.64186 36.6493 7.39035 36.6492 7.13636M36.5021 7.87652L36.6492 7.13636M36.6492 7.13636C36.6492 7.13633 36.6492 7.1363 36.6492 7.13626M36.6492 7.13636V7.13626M36.6492 7.13626V2.53409C36.6492 2.02114 36.4454 1.5292 36.0827 1.16648C35.72 0.803769 35.2281 0.6 34.7151 0.6C34.2022 0.6 33.7102 0.803769 33.3475 1.16648C32.9848 1.5292 32.781 2.02114 32.781 2.53409V7.13626C32.781 7.1363 32.781 7.13633 32.781 7.13636C32.781 7.39035 32.831 7.64186 32.9281 7.87652C33.0253 8.11122 33.1678 8.32447 33.3474 8.50409C33.527 8.68371 33.7403 8.82618 33.975 8.92336C34.2096 9.02051 34.4611 9.07049 34.715 9.07046L36.6492 7.13626Z" fill="#00BC73" stroke="#00BC73" stroke-width="0.8"/>
<path d="M55.0489 10.1472L55.0488 10.1472L55.0431 10.1529L51.7892 13.4069L51.7891 13.4068L51.7836 13.4125C51.4327 13.7776 51.239 14.2657 51.244 14.772C51.249 15.2784 51.4524 15.7626 51.8105 16.1206C52.1686 16.4786 52.6527 16.682 53.1591 16.687C53.6654 16.692 54.1535 16.4982 54.5186 16.1473L54.5186 16.1473L54.5242 16.1417L57.778 12.8879L57.7781 12.8879L57.7836 12.8821C58.1343 12.517 58.3279 12.029 58.3228 11.5228C58.3177 11.0166 58.1144 10.5325 57.7564 10.1745C57.3985 9.81657 56.9144 9.61321 56.4082 9.6081C55.902 9.60299 55.414 9.79655 55.0489 10.1472Z" fill="#00BC73" stroke="#00BC73" stroke-width="0.8"/>
<path d="M65.3977 31.2815H60.7954C60.2825 31.2815 59.7905 31.4853 59.4278 31.848C59.0651 32.2107 58.8614 32.7026 58.8614 33.2156C58.8614 33.7285 59.0651 34.2205 59.4278 34.5832C59.7905 34.9459 60.2825 35.1497 60.7954 35.1497H65.3977C65.9107 35.1497 66.4026 34.9459 66.7653 34.5832C67.128 34.2205 67.3318 33.7285 67.3318 33.2156C67.3318 32.7026 67.128 32.2107 66.7653 31.848C66.4026 31.4853 65.9107 31.2815 65.3977 31.2815Z" fill="#00BC73" stroke="#00BC73" stroke-width="0.8"/>
<path d="M54.5241 50.2891L54.5242 50.2891L54.5185 50.2836C54.1534 49.9327 53.6653 49.739 53.1589 49.744C52.6526 49.749 52.1684 49.9524 51.8104 50.3104C51.4524 50.6685 51.249 51.1527 51.244 51.659C51.239 52.1654 51.4328 52.6535 51.7837 53.0185L51.7836 53.0186L51.7892 53.0242L55.0431 56.278L55.0431 56.278L55.0488 56.2835C55.4138 56.6344 55.902 56.8281 56.4083 56.8231C56.9146 56.8181 57.3988 56.6147 57.7568 56.2566C58.1149 55.8986 58.3182 55.4144 58.3232 54.9081C58.3282 54.4017 58.1344 53.9136 57.7835 53.5486L57.7836 53.5485L57.778 53.5429L54.5241 50.2891Z" fill="#00BC73" stroke="#00BC73" stroke-width="0.8"/>
<path d="M14.9142 50.2827L14.9142 50.2826L14.9086 50.2882L11.6546 53.5421L11.6546 53.5421L11.6491 53.5478C11.2982 53.9129 11.1045 54.401 11.1095 54.9073C11.1145 55.4137 11.3179 55.8978 11.676 56.2559C12.034 56.6139 12.5182 56.8173 13.0246 56.8222C13.5309 56.8272 14.019 56.6335 14.384 56.2826L14.3841 56.2826L14.3897 56.277L17.6436 53.0231L17.6436 53.0232L17.6491 53.0175C18 52.6524 18.1937 52.1643 18.1887 51.658C18.1837 51.1516 17.9804 50.6675 17.6223 50.3094C17.2642 49.9514 16.7801 49.748 16.2737 49.743C15.7674 49.738 15.2793 49.9318 14.9142 50.2827Z" fill="#00BC73" stroke="#00BC73" stroke-width="0.8"/>
<path d="M8.63636 31.2815H4.03409C3.52114 31.2815 3.0292 31.4853 2.66648 31.848C2.30377 32.2107 2.1 32.7026 2.1 33.2156C2.1 33.7285 2.30377 34.2205 2.66648 34.5832C3.0292 34.9459 3.52114 35.1497 4.03409 35.1497H8.63636C9.14932 35.1497 9.64126 34.9459 10.004 34.5832C10.3667 34.2205 10.5705 33.7285 10.5705 33.2156C10.5705 32.7026 10.3667 32.2107 10.004 31.848C9.64126 31.4853 9.14932 31.2815 8.63636 31.2815Z" fill="#00BC73" stroke="#00BC73" stroke-width="0.8"/>
<path d="M14.9086 16.1421L14.9085 16.1422L14.9142 16.1476C15.2793 16.4986 15.7674 16.6924 16.2738 16.6874C16.7802 16.6824 17.2644 16.4791 17.6225 16.121C17.9806 15.7628 18.184 15.2786 18.1889 14.7722C18.1938 14.2658 18 13.7777 17.649 13.4126L17.649 13.4126L17.6435 13.407L14.3896 10.1532L14.3897 10.1532L14.3839 10.1477C14.0189 9.7968 13.5307 9.60307 13.0244 9.60809C12.5181 9.61312 12.0339 9.8165 11.6759 10.1746C11.3178 10.5326 11.1145 11.0168 11.1095 11.5232C11.1045 12.0295 11.2983 12.5176 11.6492 12.8826L11.6491 12.8827L11.6547 12.8883L14.9086 16.1421Z" fill="#00BC73" stroke="#00BC73" stroke-width="0.8"/>
<path d="M44.0154 24.2513L44.0154 24.2513C44.3585 23.8701 44.8391 23.6408 45.3513 23.6139C45.8635 23.587 46.3654 23.7646 46.7466 24.1078C47.1278 24.4509 47.3571 24.9315 47.384 25.4437C47.4109 25.9559 47.2333 26.4578 46.8902 26.839C46.8901 26.839 46.8901 26.839 46.8901 26.839L33.0836 42.1796L44.0154 24.2513ZM44.0154 24.2513L31.5722 38.0767M44.0154 24.2513L31.5722 38.0767M31.5722 38.0767L26.877 33.3822L26.877 33.3822L26.8744 33.3797C26.5107 33.0225 26.0205 32.8233 25.5106 32.8256C25.0008 32.8279 24.5124 33.0315 24.1519 33.392C23.7914 33.7526 23.5878 34.2409 23.5855 34.7508C23.5832 35.2606 23.7823 35.7508 24.1396 36.1146L24.1421 36.1172L30.2783 42.2533C30.2784 42.2534 30.2784 42.2535 30.2785 42.2535C30.458 42.4332 30.6711 42.5757 30.9057 42.6729C31.1404 42.7702 31.392 42.8202 31.646 42.8202V42.8202L31.6534 42.8201L31.6938 42.8193L31.6964 42.8193C31.959 42.8127 32.2175 42.7526 32.456 42.6425C32.6944 42.5326 32.9079 42.3752 33.0833 42.1799L31.5722 38.0767Z" fill="#00BC73" stroke="#00BC73" stroke-width="0.8"/>
</g>
<defs>
<clipPath id="clip0_4004_2205">
<rect width="69" height="69" fill="white" transform="translate(0.5)"/>
</clipPath>
</defs>
</svg>
