<svg width="70" height="70" viewBox="0 0 70 70" fill="none" xmlns="http://www.w3.org/2000/svg">
<g clip-path="url(#clip0_4004_2182)">
<path d="M44.4721 22.0771C39.4943 17.0992 31.402 17.0992 26.4242 22.0771C25.4286 23.0727 25.4286 24.6809 26.4242 25.6765C27.4198 26.6721 29.028 26.6721 30.0236 25.6765C33.0103 22.6898 37.8605 22.6898 40.8472 25.6765L53.3557 38.185C56.3424 41.1717 56.3424 46.0219 53.3557 49.0086L40.8472 61.5171C37.8605 64.5038 33.0103 64.5038 30.0236 61.5171L17.5151 49.0086C14.605 46.0985 14.5539 41.4269 17.3109 38.4402L26.3987 47.528C28.8748 50.0042 32.1423 51.255 35.4354 51.255C38.7284 51.255 41.9704 50.0042 44.4721 47.528L49.6797 42.3204C50.6753 41.3248 50.6753 39.7166 49.6797 38.721C48.6842 37.7255 47.0759 37.7255 46.0803 38.721L40.8727 43.9286C37.886 46.9153 33.0358 46.9153 30.0491 43.9286L17.413 31.2925C14.4263 28.3058 14.4263 23.4556 17.413 20.4689L30.0491 7.83277C33.0358 4.84605 37.886 4.84605 40.8727 7.83277L53.5088 20.4689C55.2447 22.2047 56.0361 24.6809 55.6532 27.1315C55.4234 28.51 56.3679 29.8375 57.7719 30.0672C59.1504 30.297 60.4778 29.3524 60.7076 27.9484C61.3713 23.9151 60.0184 19.7541 57.1337 16.8695L44.4976 4.23339C39.5198 -0.744465 31.4276 -0.744465 26.4497 4.23339L13.8136 16.8695C8.86127 21.8218 8.83574 29.863 13.7625 34.8409C9.01444 39.8442 9.06549 47.7578 13.9668 52.659L26.4752 65.1675C28.9514 67.6692 32.2444 68.8945 35.512 68.8945C38.7795 68.8945 42.047 67.6437 44.5487 65.1675L57.0572 52.659C62.035 47.6812 62.035 39.589 57.0572 34.6111L44.5487 22.1026L44.4721 22.0771Z" fill="#00BC73"/>
</g>
<defs>
<clipPath id="clip0_4004_2182">
<rect width="69" height="69" fill="white" transform="translate(0.5 0.5)"/>
</clipPath>
</defs>
</svg>
