<svg width="70" height="69" viewBox="0 0 70 69" fill="none" xmlns="http://www.w3.org/2000/svg">
<g clip-path="url(#clip0_4004_2232)">
<path d="M41.6658 31.6562L34.0038 39.3279C33.5025 39.8657 32.8051 40.177 32.0671 40.1872M41.6658 31.6562L30.2416 35.5682C29.7228 36.0511 29.4226 36.7232 29.4128 37.4345L29.3129 37.4327C29.3129 37.4328 29.3128 37.4329 29.3128 37.4329C29.2994 38.1678 29.5838 38.876 30.1056 39.3944C30.6241 39.9162 31.3323 40.2007 32.0671 40.1872M41.6658 31.6562C42.7259 33.3905 43.2911 35.3813 43.2975 37.4153C43.2973 41.9493 40.5646 46.0368 36.3767 47.7704L36.3766 47.7704C32.1887 49.5071 27.3633 48.5466 24.1585 45.3417C20.9536 42.1368 19.9932 37.3117 21.7298 33.1235L21.7298 33.1235C23.4632 28.9355 27.5507 26.2028 32.0849 26.2027C34.1189 26.2091 36.1095 26.7742 37.8439 27.8342L30.1722 35.4962L41.6658 31.6562ZM32.0671 40.1872C32.067 40.1872 32.067 40.1872 32.0669 40.1872L32.0655 40.0872L32.0674 40.1872C32.0673 40.1872 32.0672 40.1872 32.0671 40.1872ZM57.22 37.4149V37.4152C57.233 45.0915 53.7426 52.3517 47.7396 57.139C41.737 61.9261 33.8788 63.7103 26.3976 61.9878L26.3975 61.9878C18.9162 60.2686 12.6308 55.228 9.32531 48.2993L9.32529 48.2992C6.01684 41.3704 6.05261 33.3136 9.41954 26.4139C12.7865 19.5143 19.1171 14.5291 26.6149 12.8751L26.615 12.8751C34.0732 11.2256 41.8761 13.0555 47.8257 17.8428L41.7359 23.9294C37.1563 20.6367 31.2226 19.8735 25.9545 21.8951L25.9544 21.8951C20.6566 23.9302 16.7506 28.5059 15.5692 34.0567L15.5692 34.0568C14.3908 39.6074 16.1009 45.3781 20.112 49.3889C24.1231 53.4 29.894 55.1102 35.4441 53.9317L35.4442 53.9317C40.9948 52.7501 45.5706 48.844 47.6058 43.5465L47.6058 43.5464C49.6275 38.2785 48.8642 32.3447 45.5715 27.765L51.6598 21.6768C55.2607 26.1306 57.2232 31.6846 57.22 37.4149ZM66.8899 6.85961H62.6406V2.61027C62.6406 1.11276 61.4244 -0.1 59.9303 -0.1C58.4328 -0.1 57.22 1.11284 57.22 2.61027V8.44853L51.6726 13.9991C43.5476 7.20089 32.4855 5.08161 22.4222 8.40476C12.3299 11.734 4.68628 20.0617 2.23086 30.4029C-0.22757 40.7407 2.85284 51.6149 10.3688 59.1312C17.8848 66.6474 28.7593 69.728 39.0971 67.2691C49.4383 64.814 57.7658 57.1701 61.0952 47.0778C64.4181 37.0145 62.2991 25.9523 55.5009 17.8274L61.0515 12.28H66.8897C68.3872 12.28 69.6 11.0671 69.6 9.56971C69.6 8.07562 68.3874 6.85961 66.8899 6.85961Z" fill="#00BC73" stroke="#00BC73" stroke-width="0.2"/>
</g>
<defs>
<clipPath id="clip0_4004_2232">
<rect width="69" height="69" fill="white" transform="translate(0.5)"/>
</clipPath>
</defs>
</svg>
