<svg width="70" height="69" viewBox="0 0 70 69" fill="none" xmlns="http://www.w3.org/2000/svg">
<path d="M26.1128 38.6491L26.113 38.6491C32.5627 40.4289 36.3447 41.9248 38.9689 44.5494C41.5932 47.1741 43.0892 50.9569 44.8706 57.4067L44.8706 57.4069C45.1016 58.2406 45.8596 58.8182 46.7259 58.8182C47.5921 58.8182 48.3501 58.2406 48.5811 57.4069L48.5811 57.4067C50.3624 50.957 51.8584 47.175 54.4826 44.5508C57.1069 41.9265 60.889 40.4305 67.3388 38.6491L67.3389 38.6491C68.1726 38.4181 68.7502 37.6601 68.7502 36.7938C68.7502 35.9276 68.1726 35.1696 67.339 34.9386L67.3388 34.9386C60.8891 33.1573 57.1062 31.6605 54.4816 29.0359C51.8569 26.4112 50.3609 22.6292 48.5811 16.181L48.5811 16.1807C48.3501 15.3471 47.5921 14.7695 46.7259 14.7695C45.8596 14.7695 45.1016 15.3471 44.8706 16.1807L44.8706 16.181C43.0908 22.6291 41.5949 26.4111 38.9702 29.0357C36.3456 31.6604 32.5627 33.1572 26.1129 34.9386L26.1128 34.9386C25.2791 35.1696 24.7015 35.9276 24.7015 36.7938C24.7015 37.6601 25.2791 38.4181 26.1128 38.6491ZM41.6871 31.7596C43.8263 29.6207 45.3551 26.8885 46.7258 23.1394C48.0964 26.887 49.6245 29.6184 51.7633 31.7572C53.9022 33.8961 56.6345 35.4249 60.3837 36.797C56.6359 38.1676 53.9036 39.6957 51.7644 41.8345C49.6252 43.9734 48.0964 46.7056 46.7257 50.4547C45.3552 46.7071 43.8271 43.9757 41.6883 41.8369C39.5494 39.698 36.817 38.1692 33.0678 36.7971C36.8156 35.4265 39.5479 33.8984 41.6871 31.7596Z" fill="#00BC73" stroke="#00BC73" stroke-width="0.5"/>
<path d="M8.83626 17.0919L8.83645 17.092C12.763 18.1766 15.0086 19.0515 16.5538 20.5968C18.099 22.142 18.9732 24.3869 20.0565 28.312L20.0565 28.3122C20.2876 29.1461 21.0489 29.7234 21.9118 29.7234C22.7738 29.7234 23.5393 29.1467 23.7672 28.3114C24.8502 24.3867 25.7243 22.1419 27.2695 20.5967C28.8147 19.0514 31.0604 18.1765 34.9871 17.092L34.9872 17.0919C35.8209 16.861 36.3985 16.1029 36.3985 15.2367C36.3985 14.3705 35.8209 13.6125 34.9873 13.3815L34.9871 13.3814C31.0605 12.2968 28.8149 11.4219 27.2697 9.87664C25.7246 8.3315 24.8504 6.08679 23.7672 2.16219C23.5395 1.32695 22.7772 0.75 21.9118 0.75C21.0455 0.75 20.2875 1.32758 20.0565 2.16121L20.0565 2.1614C18.9719 6.08798 18.097 8.33296 16.5517 9.87786C15.0065 11.4228 12.7615 12.2969 8.83644 13.3814L8.83627 13.3815C8.00259 13.6125 7.42505 14.3705 7.42505 15.2367C7.42505 16.1029 8.00263 16.861 8.83626 17.0919ZM19.27 12.5885C20.3404 11.5182 21.1807 10.2274 21.9151 8.60396C22.6496 10.2274 23.4899 11.5182 24.5603 12.5886C25.6306 13.6589 26.9213 14.4991 28.5446 15.2336C26.9198 15.968 25.6283 16.8083 24.5579 17.8788C23.4876 18.9491 22.6481 20.2397 21.9149 21.8629C21.1805 20.2397 20.3403 18.949 19.27 17.8787C18.1996 16.8084 16.9088 15.9681 15.2854 15.2337C16.9089 14.4992 18.1997 13.6589 19.27 12.5885Z" fill="#00BC73" stroke="#00BC73" stroke-width="0.5"/>
<path d="M2.66121 54.7798L2.66139 54.7798C6.82933 55.9314 9.25219 56.8935 10.9299 58.5705C12.6076 60.2474 13.5698 62.6688 14.72 66.8352L14.7201 66.8354C14.951 67.6691 15.7091 68.2466 16.5753 68.2466C17.4415 68.2466 18.1995 67.669 18.4305 66.8354L18.4306 66.8352C19.5806 62.6673 20.5427 60.2451 22.2204 58.5681C23.8981 56.8911 26.321 55.9297 30.4891 54.7798L30.4894 54.7798C31.323 54.5488 31.9006 53.7908 31.9006 52.9246C31.9006 52.0578 31.3194 51.3003 30.4896 51.0694L30.4891 51.0693C26.3212 49.9192 23.8984 48.9572 22.2207 47.2798C20.543 45.6025 19.5808 43.1804 18.4306 39.0139L18.4305 39.0137C18.1995 38.18 17.4415 37.6025 16.5753 37.6025C15.7091 37.6025 14.951 38.1801 14.7201 39.0137L14.72 39.0139C13.57 43.1802 12.6079 45.6024 10.9302 47.2798C9.25248 48.9573 6.82953 49.9194 2.66148 51.0693L2.66122 51.0693C1.82755 51.3003 1.25 52.0583 1.25 52.9246C1.25 53.7908 1.82758 54.5488 2.66121 54.7798ZM16.5755 45.5332C17.3801 47.3733 18.3009 48.8196 19.4899 50.0089C20.6789 51.1983 22.1253 52.1199 23.9668 52.9246C22.1268 53.7292 20.6812 54.65 19.4922 55.839C18.3031 57.0281 17.3815 58.4747 16.5756 60.3163C15.7708 58.4761 14.8492 57.0303 13.6598 55.8413C12.4704 54.6523 11.0239 53.7307 9.18353 52.9247C11.0239 52.1201 12.4704 51.1992 13.6598 50.0101C14.8492 48.8211 15.7708 47.3747 16.5755 45.5332Z" fill="#00BC73" stroke="#00BC73" stroke-width="0.5"/>
</svg>
