<svg width="38" height="37" viewBox="0 0 38 37" fill="none" xmlns="http://www.w3.org/2000/svg">
<g clip-path="url(#clip0_4004_2287)">
<path d="M36.6679 10.9707C36.6679 10.9707 36.3114 8.45354 35.2132 7.34826C33.8227 5.89356 32.2682 5.88643 31.5551 5.80086C26.4494 5.43005 18.7837 5.43005 18.7837 5.43005H18.7695C18.7695 5.43005 11.1038 5.43005 5.99811 5.80086C5.28502 5.88643 3.73049 5.89356 2.33998 7.34826C1.24182 8.45354 0.892411 10.9707 0.892411 10.9707C0.892411 10.9707 0.521606 13.93 0.521606 16.8822V19.649C0.521606 22.6012 0.88528 25.5605 0.88528 25.5605C0.88528 25.5605 1.24182 28.0777 2.33284 29.1829C3.72336 30.6376 5.54886 30.5877 6.36178 30.7446C9.28543 31.0227 18.7766 31.1083 18.7766 31.1083C18.7766 31.1083 26.4494 31.094 31.5551 30.7303C32.2682 30.6448 33.8227 30.6376 35.2132 29.1829C36.3114 28.0777 36.6679 25.5605 36.6679 25.5605C36.6679 25.5605 37.0316 22.6083 37.0316 19.649V16.8822C37.0316 13.93 36.6679 10.9707 36.6679 10.9707ZM15.0044 23.0076V12.7463L24.8664 17.8948L15.0044 23.0076Z" fill="white"/>
</g>
<defs>
<clipPath id="clip0_4004_2287">
<rect width="36.51" height="36.51" fill="white" transform="translate(0.521606 0.0177002)"/>
</clipPath>
</defs>
</svg>
