<svg width="37" height="37" viewBox="0 0 37 37" fill="none" xmlns="http://www.w3.org/2000/svg">
<g clip-path="url(#clip0_4004_2283)">
<path d="M18.7343 3.30472C23.6119 3.30472 24.1895 3.32611 26.1078 3.41168C27.8905 3.49012 28.8532 3.78962 29.495 4.03921C30.3436 4.36723 30.9568 4.76657 31.5915 5.40123C32.2333 6.04302 32.6255 6.64915 32.9535 7.49774C33.2031 8.13953 33.5026 9.10934 33.581 10.885C33.6666 12.8103 33.688 13.3879 33.688 18.2584C33.688 23.136 33.6666 23.7136 33.581 25.6318C33.5026 27.4146 33.2031 28.3773 32.9535 29.019C32.6255 29.8676 32.2261 30.4809 31.5915 31.1156C30.9497 31.7573 30.3436 32.1496 29.495 32.4776C28.8532 32.7272 27.8834 33.0267 26.1078 33.1051C24.1824 33.1907 23.6048 33.2121 18.7343 33.2121C13.8567 33.2121 13.2791 33.1907 11.3609 33.1051C9.57814 33.0267 8.61546 32.7272 7.97367 32.4776C7.12508 32.1496 6.51182 31.7502 5.87716 31.1156C5.23537 30.4738 4.84317 29.8676 4.51514 29.019C4.26556 28.3773 3.96606 27.4074 3.88761 25.6318C3.80204 23.7065 3.78065 23.1289 3.78065 18.2584C3.78065 13.3808 3.80204 12.8032 3.88761 10.885C3.96606 9.10221 4.26556 8.13953 4.51514 7.49774C4.84317 6.64915 5.2425 6.03588 5.87716 5.40123C6.51895 4.75944 7.12508 4.36723 7.97367 4.03921C8.61546 3.78962 9.58527 3.49012 11.3609 3.41168C13.2791 3.32611 13.8567 3.30472 18.7343 3.30472ZM18.7343 0.017334C13.7783 0.017334 13.1579 0.0387269 11.2111 0.124299C9.27151 0.209871 7.93801 0.523634 6.78279 0.972886C5.57766 1.44353 4.55793 2.06393 3.54533 3.08366C2.5256 4.09626 1.9052 5.11599 1.43456 6.31399C0.985304 7.47634 0.67154 8.80271 0.585969 10.7423C0.500397 12.6962 0.479004 13.3166 0.479004 18.2727C0.479004 23.2287 0.500397 23.8491 0.585969 25.7958C0.67154 27.7355 0.985304 29.069 1.43456 30.2242C1.9052 31.4293 2.5256 32.4491 3.54533 33.4617C4.55793 34.4742 5.57766 35.1018 6.77566 35.5653C7.93801 36.0145 9.26438 36.3283 11.204 36.4139C13.1508 36.4994 13.7712 36.5208 18.7272 36.5208C23.6832 36.5208 24.3036 36.4994 26.2504 36.4139C28.19 36.3283 29.5235 36.0145 30.6787 35.5653C31.8767 35.1018 32.8965 34.4742 33.9091 33.4617C34.9217 32.4491 35.5492 31.4293 36.0127 30.2313C36.4619 29.069 36.7757 27.7426 36.8613 25.803C36.9469 23.8562 36.9683 23.2358 36.9683 18.2798C36.9683 13.3238 36.9469 12.7034 36.8613 10.7566C36.7757 8.81697 36.4619 7.48347 36.0127 6.32825C35.5634 5.11599 34.9431 4.09626 33.9233 3.08366C32.9107 2.07106 31.891 1.44353 30.693 0.980017C29.5306 0.530765 28.2043 0.217002 26.2646 0.13143C24.3108 0.0387269 23.6904 0.017334 18.7343 0.017334Z" fill="white"/>
<path d="M18.7343 8.89539C13.5572 8.89539 9.35706 13.0955 9.35706 18.2726C9.35706 23.4497 13.5572 27.6499 18.7343 27.6499C23.9114 27.6499 28.1115 23.4497 28.1115 18.2726C28.1115 13.0955 23.9114 8.89539 18.7343 8.89539ZM18.7343 24.3554C15.3756 24.3554 12.6516 21.6313 12.6516 18.2726C12.6516 14.9139 15.3756 12.1899 18.7343 12.1899C22.093 12.1899 24.817 14.9139 24.817 18.2726C24.817 21.6313 22.093 24.3554 18.7343 24.3554Z" fill="white"/>
<path d="M30.6716 8.52454C30.6716 9.73681 29.6875 10.7138 28.4824 10.7138C27.2701 10.7138 26.2932 9.72968 26.2932 8.52454C26.2932 7.31227 27.2772 6.33533 28.4824 6.33533C29.6875 6.33533 30.6716 7.3194 30.6716 8.52454Z" fill="white"/>
</g>
<defs>
<clipPath id="clip0_4004_2283">
<rect width="36.5106" height="36.5106" fill="white" transform="translate(0.479004 0.017334)"/>
</clipPath>
</defs>
</svg>
