<svg width="38" height="37" viewBox="0 0 38 37" fill="none" xmlns="http://www.w3.org/2000/svg">
<g clip-path="url(#clip0_4004_2282)">
<path d="M34.7764 0.017334H3.6639C2.17352 0.017334 0.968384 1.19395 0.968384 2.64867V33.8895C0.968384 35.3442 2.17352 36.528 3.6639 36.528H34.7764C36.2668 36.528 37.479 35.3442 37.479 33.8966V2.64867C37.479 1.19395 36.2668 0.017334 34.7764 0.017334ZM11.8003 31.1298H6.3808V13.7017H11.8003V31.1298ZM9.09058 11.3271C7.35062 11.3271 5.94581 9.92227 5.94581 8.18944C5.94581 6.45661 7.35062 5.05181 9.09058 5.05181C10.8234 5.05181 12.2282 6.45661 12.2282 8.18944C12.2282 9.91514 10.8234 11.3271 9.09058 11.3271ZM32.0809 31.1298H26.6684V22.6582C26.6684 20.6401 26.6328 18.0373 23.8517 18.0373C21.035 18.0373 20.6071 20.2408 20.6071 22.5156V31.1298H15.2018V13.7017H20.3932V16.0834H20.4645C21.1847 14.7143 22.9532 13.2667 25.5845 13.2667C31.0683 13.2667 32.0809 16.875 32.0809 21.5672V31.1298Z" fill="white"/>
</g>
<defs>
<clipPath id="clip0_4004_2282">
<rect width="36.5106" height="36.5106" fill="white" transform="translate(0.968384 0.017334)"/>
</clipPath>
</defs>
</svg>
