<svg width="38" height="37" viewBox="0 0 38 37" fill="none" xmlns="http://www.w3.org/2000/svg">
<g clip-path="url(#clip0_4004_2285)">
<path d="M26.4723 0.017334H20.3192V24.8869C20.3192 27.8501 17.9527 30.2841 15.0076 30.2841C12.0625 30.2841 9.69594 27.8501 9.69594 24.8869C9.69594 21.9767 12.0099 19.5955 14.8498 19.4897V13.2458C8.59154 13.3516 3.54285 18.4843 3.54285 24.8869C3.54285 31.3424 8.69671 36.528 15.0602 36.528C21.4236 36.528 26.5775 31.2895 26.5775 24.8869V12.1346C28.8915 13.8279 31.7313 14.8333 34.729 14.8862V8.64231C30.1011 8.48357 26.4723 4.67376 26.4723 0.017334Z" fill="white"/>
</g>
<defs>
<clipPath id="clip0_4004_2285">
<rect width="36.5106" height="36.5106" fill="white" transform="translate(0.500305 0.017334)"/>
</clipPath>
</defs>
</svg>
