<svg width="37" height="37" viewBox="0 0 37 37" fill="none" xmlns="http://www.w3.org/2000/svg">
<g clip-path="url(#clip0_4004_2286)">
<path d="M18.2662 0.017334C8.1842 0.017334 0.0109253 8.19061 0.0109253 18.2727C0.0109253 26.8337 5.9052 34.0175 13.8565 35.9905V23.8515H10.0922V18.2727H13.8565V15.8688C13.8565 9.65541 16.6685 6.77545 22.7687 6.77545C23.9254 6.77545 25.9211 7.00255 26.7374 7.22892V12.2856C26.3066 12.2404 25.5581 12.2177 24.6286 12.2177C21.6354 12.2177 20.4788 13.3517 20.4788 16.2996V18.2727H26.4417L25.4172 23.8515H20.4788V36.3943C29.5181 35.3027 36.5223 27.6062 36.5223 18.2727C36.5216 8.19061 28.3483 0.017334 18.2662 0.017334Z" fill="white"/>
</g>
<defs>
<clipPath id="clip0_4004_2286">
<rect width="36.5106" height="36.5106" fill="white" transform="translate(0.0109253 0.017334)"/>
</clipPath>
</defs>
</svg>
