<svg width="266" height="26" viewBox="0 0 266 26" fill="none" xmlns="http://www.w3.org/2000/svg">
<path d="M1.36202 20.7736C0.988694 20.7736 0.699359 20.6616 0.494028 20.4376C0.288698 20.2136 0.186035 19.915 0.186035 19.5416V1.87383C0.186035 1.48184 0.288698 1.18317 0.494028 0.977843C0.718026 0.753846 1.01669 0.641846 1.39002 0.641846C1.72602 0.641846 1.98734 0.70718 2.17401 0.837845C2.37934 0.96851 2.566 1.19251 2.734 1.50984L10.2379 15.5937H9.36993L16.8738 1.50984C17.0418 1.19251 17.2192 0.96851 17.4058 0.837845C17.5925 0.70718 17.8538 0.641846 18.1898 0.641846C18.5632 0.641846 18.8525 0.753846 19.0578 0.977843C19.2631 1.18317 19.3658 1.48184 19.3658 1.87383V19.5416C19.3658 19.915 19.2631 20.2136 19.0578 20.4376C18.8711 20.6616 18.5818 20.7736 18.1898 20.7736C17.7978 20.7736 17.4992 20.6616 17.2938 20.4376C17.1072 20.2136 17.0138 19.915 17.0138 19.5416V4.44981H17.6298L10.9099 17.0217C10.7606 17.2643 10.6019 17.451 10.4339 17.5816C10.2846 17.6936 10.0699 17.7497 9.78992 17.7497C9.52859 17.7497 9.30459 17.6843 9.11793 17.5537C8.94993 17.423 8.8006 17.2457 8.66993 17.0217L1.86602 4.4218H2.538V19.5416C2.538 19.915 2.43534 20.2136 2.23001 20.4376C2.04335 20.6616 1.75402 20.7736 1.36202 20.7736ZM29.7089 20.8296C28.7756 20.8296 27.9262 20.643 27.1609 20.2696C26.4143 19.8963 25.8263 19.3923 25.3969 18.7576C24.9863 18.123 24.7809 17.4137 24.7809 16.6297C24.7809 15.6217 25.0329 14.8284 25.5369 14.2497C26.0409 13.671 26.8903 13.2604 28.0849 13.0177C29.2796 12.7564 30.8849 12.6257 32.9008 12.6257H34.2168V14.2497H32.9569C31.5195 14.2497 30.3809 14.315 29.5409 14.4457C28.7196 14.5763 28.1409 14.8097 27.8049 15.1457C27.4689 15.463 27.3009 15.911 27.3009 16.4897C27.3009 17.2177 27.5529 17.815 28.0569 18.2816C28.5796 18.7483 29.2889 18.9816 30.1849 18.9816C30.8942 18.9816 31.5195 18.8136 32.0609 18.4776C32.6022 18.123 33.0315 17.6563 33.3488 17.0777C33.6662 16.4803 33.8248 15.799 33.8248 15.0337V11.8137C33.8248 10.7124 33.6008 9.91907 33.1528 9.43375C32.7048 8.92975 31.9489 8.67775 30.8849 8.67775C30.2689 8.67775 29.6342 8.76176 28.9809 8.92975C28.3276 9.09775 27.6462 9.35908 26.9369 9.71374C26.6569 9.84441 26.4143 9.89107 26.2089 9.85374C26.0036 9.79774 25.8356 9.68574 25.7049 9.51774C25.5929 9.33108 25.5276 9.13509 25.5089 8.92975C25.5089 8.70576 25.5556 8.49109 25.6489 8.28576C25.7609 8.08042 25.9476 7.9311 26.2089 7.83776C27.0303 7.4271 27.8422 7.13777 28.6449 6.96978C29.4662 6.78311 30.2315 6.68978 30.9409 6.68978C32.1542 6.68978 33.1529 6.88577 33.9368 7.27777C34.7208 7.6511 35.3088 8.23909 35.7008 9.04175C36.0928 9.82574 36.2888 10.8337 36.2888 12.0657V19.4576C36.2888 19.887 36.1861 20.2136 35.9808 20.4376C35.7755 20.6616 35.4768 20.7736 35.0848 20.7736C34.7115 20.7736 34.4128 20.6616 34.1888 20.4376C33.9835 20.2136 33.8808 19.887 33.8808 19.4576V17.4697H34.1328C33.9835 18.1603 33.7035 18.7576 33.2928 19.2616C32.8822 19.7656 32.3689 20.1576 31.7529 20.4376C31.1555 20.6989 30.4742 20.8296 29.7089 20.8296ZM46.5423 20.8296C45.7023 20.8296 44.853 20.7363 43.9943 20.5496C43.1543 20.3443 42.361 19.999 41.6143 19.5136C41.409 19.383 41.2597 19.2243 41.1664 19.0376C41.0917 18.8323 41.0637 18.6363 41.0823 18.4496C41.1197 18.2443 41.2037 18.067 41.3343 17.9176C41.465 17.7683 41.6237 17.6843 41.8104 17.6656C42.0157 17.6283 42.2303 17.675 42.4543 17.8056C43.1823 18.2163 43.8823 18.5056 44.5543 18.6736C45.245 18.8416 45.9263 18.9256 46.5983 18.9256C47.6249 18.9256 48.3996 18.739 48.9223 18.3656C49.4449 17.9923 49.7063 17.4977 49.7063 16.8817C49.7063 16.359 49.5289 15.9577 49.1743 15.6777C48.8383 15.379 48.3063 15.155 47.5783 15.0057L44.9743 14.4737C43.817 14.2124 42.9397 13.783 42.3423 13.1857C41.7637 12.5697 41.4743 11.7857 41.4743 10.8337C41.4743 9.99374 41.6983 9.26575 42.1463 8.64976C42.613 8.0151 43.257 7.52977 44.0783 7.19377C44.8996 6.85778 45.8423 6.68978 46.9063 6.68978C47.7276 6.68978 48.5023 6.80177 49.2303 7.02577C49.9769 7.2311 50.6489 7.54843 51.2462 7.97776C51.4702 8.10843 51.6102 8.27642 51.6662 8.48175C51.7409 8.66842 51.7502 8.86442 51.6942 9.06975C51.6569 9.25642 51.5729 9.41508 51.4422 9.54574C51.3116 9.67641 51.1436 9.76041 50.9382 9.79774C50.7329 9.81641 50.5089 9.76041 50.2662 9.62975C49.7249 9.25642 49.1649 8.99508 48.5863 8.84575C48.0263 8.67775 47.4663 8.59376 46.9063 8.59376C45.8983 8.59376 45.133 8.78975 44.6103 9.18175C44.1063 9.57374 43.8543 10.0871 43.8543 10.7217C43.8543 11.2071 44.0036 11.6084 44.3023 11.9257C44.6196 12.243 45.1143 12.4764 45.7863 12.6257L48.3903 13.1577C49.6036 13.419 50.5182 13.839 51.1342 14.4177C51.7502 14.9777 52.0582 15.743 52.0582 16.7137C52.0582 17.983 51.5542 18.991 50.5462 19.7376C49.5569 20.4656 48.2223 20.8296 46.5423 20.8296ZM62.4324 20.8296C61.3311 20.8296 60.4071 20.6336 59.6604 20.2416C58.9325 19.8496 58.3818 19.2803 58.0085 18.5336C57.6538 17.787 57.4765 16.8723 57.4765 15.7897V8.90175H55.6845C55.3485 8.90175 55.0872 8.81775 54.9005 8.64976C54.7138 8.46309 54.6205 8.22042 54.6205 7.92176C54.6205 7.60443 54.7138 7.36177 54.9005 7.19377C55.0872 7.02577 55.3485 6.94177 55.6845 6.94177H57.4765V3.88981C57.4765 3.46048 57.5885 3.14315 57.8125 2.93782C58.0365 2.71382 58.3538 2.60182 58.7645 2.60182C59.1751 2.60182 59.4831 2.71382 59.6884 2.93782C59.9124 3.14315 60.0244 3.46048 60.0244 3.88981V6.94177H63.4124C63.7671 6.94177 64.0377 7.02577 64.2244 7.19377C64.4111 7.36177 64.5044 7.60443 64.5044 7.92176C64.5044 8.22042 64.4111 8.46309 64.2244 8.64976C64.0377 8.81775 63.7671 8.90175 63.4124 8.90175H60.0244V15.5657C60.0244 16.5923 60.2391 17.367 60.6684 17.8896C61.0978 18.4123 61.8071 18.6736 62.7964 18.6736C63.1511 18.6736 63.4497 18.6456 63.6924 18.5896C63.9351 18.515 64.1497 18.4776 64.3364 18.4776C64.5044 18.459 64.6444 18.515 64.7564 18.6456C64.887 18.7763 64.9524 19.019 64.9524 19.3736C64.9524 19.635 64.9057 19.8776 64.8124 20.1016C64.7377 20.3069 64.579 20.4469 64.3364 20.5216C64.1124 20.5963 63.8137 20.6616 63.4404 20.7176C63.0671 20.7923 62.7311 20.8296 62.4324 20.8296ZM74.5146 20.8296C73.0399 20.8296 71.7706 20.5496 70.7066 19.9896C69.6613 19.411 68.8493 18.599 68.2706 17.5537C67.692 16.4897 67.4027 15.239 67.4027 13.8017C67.4027 12.383 67.6827 11.1417 68.2427 10.0777C68.8213 9.01375 69.6053 8.18309 70.5946 7.58576C71.6026 6.98844 72.7506 6.68978 74.0386 6.68978C74.9532 6.68978 75.7746 6.84844 76.5026 7.16577C77.2492 7.46443 77.8839 7.90309 78.4065 8.48175C78.9292 9.06041 79.3212 9.76974 79.5825 10.6097C79.8625 11.4311 80.0025 12.3644 80.0025 13.4097C80.0025 13.7084 79.9092 13.9417 79.7225 14.1097C79.5545 14.259 79.3025 14.3337 78.9665 14.3337H69.3906V12.7097H78.3225L77.8465 13.1017C77.8465 12.131 77.6972 11.3097 77.3986 10.6377C77.1186 9.94707 76.6986 9.42441 76.1386 9.06975C75.5972 8.71509 74.9159 8.53776 74.0946 8.53776C73.1986 8.53776 72.4333 8.75242 71.7986 9.18175C71.164 9.59241 70.6786 10.1804 70.3426 10.9457C70.0066 11.6924 69.8386 12.5604 69.8386 13.5497V13.7177C69.8386 15.3977 70.24 16.667 71.0426 17.5256C71.8453 18.3843 73.0026 18.8136 74.5146 18.8136C75.1119 18.8136 75.7186 18.739 76.3346 18.5896C76.9692 18.4403 77.5759 18.1696 78.1545 17.7776C78.4345 17.6096 78.6865 17.535 78.9105 17.5537C79.1532 17.5537 79.3492 17.6283 79.4985 17.7776C79.6479 17.9083 79.7412 18.0763 79.7785 18.2816C79.8159 18.4683 79.7878 18.6736 79.6945 18.8976C79.6012 19.1216 79.4239 19.3176 79.1625 19.4856C78.5465 19.915 77.8092 20.251 76.9505 20.4936C76.1106 20.7176 75.2986 20.8296 74.5146 20.8296ZM86.028 20.7736C85.5987 20.7736 85.2721 20.6616 85.0481 20.4376C84.8241 20.2136 84.7121 19.887 84.7121 19.4576V8.03376C84.7121 7.60443 84.8241 7.2871 85.0481 7.08177C85.2721 6.85777 85.5801 6.74577 85.9721 6.74577C86.3641 6.74577 86.6627 6.85777 86.868 7.08177C87.092 7.2871 87.204 7.60443 87.204 8.03376V10.1897H86.924C87.2227 9.06975 87.7827 8.22042 88.604 7.64176C89.4253 7.0631 90.4613 6.73644 91.712 6.66178C92.0107 6.64311 92.2533 6.71777 92.44 6.88577C92.6266 7.0351 92.7293 7.29644 92.748 7.66977C92.7666 8.02443 92.6826 8.31376 92.496 8.53776C92.3093 8.74309 92.02 8.86442 91.628 8.90175L91.124 8.92975C89.892 9.06042 88.94 9.46175 88.268 10.1337C87.6147 10.8057 87.288 11.7297 87.288 12.9057V19.4576C87.288 19.887 87.176 20.2136 86.952 20.4376C86.7467 20.6616 86.4387 20.7736 86.028 20.7736ZM111.675 20.7736C111.264 20.7736 110.947 20.6616 110.723 20.4376C110.499 20.195 110.387 19.8496 110.387 19.4016V10.3577L110.947 12.0937L104.003 2.46182C103.817 2.20049 103.723 1.92984 103.723 1.64984C103.742 1.35118 103.854 1.10851 104.059 0.921842C104.265 0.735178 104.545 0.641846 104.899 0.641846C105.179 0.641846 105.431 0.70718 105.655 0.837845C105.879 0.96851 106.094 1.18317 106.299 1.48184L112.067 9.43375H111.423L117.191 1.48184C117.396 1.16451 117.602 0.949844 117.807 0.837845C118.012 0.70718 118.274 0.641846 118.591 0.641846C118.927 0.641846 119.188 0.735178 119.375 0.921842C119.58 1.08984 119.683 1.31384 119.683 1.59384C119.702 1.87383 119.599 2.16316 119.375 2.46182L112.431 12.0937L112.991 10.3577V19.4016C112.991 20.3163 112.552 20.7736 111.675 20.7736ZM127.229 20.8296C125.885 20.8296 124.718 20.5403 123.729 19.9616C122.739 19.383 121.974 18.5616 121.433 17.4977C120.891 16.4337 120.621 15.183 120.621 13.7457C120.621 12.663 120.77 11.6924 121.069 10.8337C121.386 9.95641 121.834 9.20975 122.413 8.59376C122.991 7.97776 123.682 7.5111 124.485 7.19377C125.306 6.85778 126.221 6.68978 127.229 6.68978C128.573 6.68978 129.739 6.97911 130.729 7.55777C131.718 8.13643 132.483 8.95775 133.025 10.0217C133.566 11.0671 133.837 12.3084 133.837 13.7457C133.837 14.8283 133.678 15.8083 133.361 16.6857C133.062 17.563 132.623 18.3096 132.045 18.9256C131.466 19.5416 130.766 20.0176 129.945 20.3536C129.142 20.6709 128.237 20.8296 127.229 20.8296ZM127.229 18.8136C128.05 18.8136 128.759 18.6176 129.357 18.2256C129.973 17.8336 130.439 17.2643 130.757 16.5177C131.093 15.771 131.261 14.847 131.261 13.7457C131.261 12.103 130.897 10.8524 130.169 9.99374C129.441 9.13508 128.461 8.70575 127.229 8.70575C126.426 8.70575 125.717 8.90175 125.101 9.29375C124.503 9.66708 124.037 10.2271 123.701 10.9737C123.365 11.7204 123.197 12.6444 123.197 13.7457C123.197 15.3883 123.561 16.6483 124.289 17.5256C125.035 18.3843 126.015 18.8136 127.229 18.8136ZM143.513 20.8296C142.411 20.8296 141.487 20.6243 140.741 20.2136C140.013 19.803 139.471 19.1963 139.117 18.3936C138.762 17.591 138.585 16.583 138.585 15.3697V8.03376C138.585 7.60443 138.687 7.2871 138.893 7.08177C139.117 6.85777 139.434 6.74577 139.845 6.74577C140.255 6.74577 140.573 6.85777 140.797 7.08177C141.021 7.2871 141.133 7.60443 141.133 8.03376V15.3697C141.133 16.527 141.366 17.3856 141.833 17.9456C142.299 18.487 143.037 18.7576 144.045 18.7576C145.165 18.7576 146.07 18.3843 146.761 17.6376C147.47 16.891 147.825 15.9017 147.825 14.6697V8.03376C147.825 7.60443 147.927 7.2871 148.133 7.08177C148.357 6.85777 148.674 6.74577 149.085 6.74577C149.495 6.74577 149.813 6.85777 150.037 7.08177C150.261 7.2871 150.373 7.60443 150.373 8.03376V19.4576C150.373 20.335 149.962 20.7736 149.141 20.7736C148.73 20.7736 148.413 20.6616 148.189 20.4376C147.983 20.2136 147.881 19.887 147.881 19.4576V17.0217L148.245 17.4977C147.871 18.5803 147.265 19.411 146.425 19.9896C145.603 20.5496 144.633 20.8296 143.513 20.8296ZM157.328 20.7736C156.899 20.7736 156.572 20.6616 156.348 20.4376C156.124 20.2136 156.012 19.887 156.012 19.4576V8.03376C156.012 7.60443 156.124 7.2871 156.348 7.08177C156.572 6.85777 156.88 6.74577 157.272 6.74577C157.664 6.74577 157.963 6.85777 158.168 7.08177C158.392 7.2871 158.504 7.60443 158.504 8.03376V10.1897H158.224C158.523 9.06975 159.083 8.22042 159.904 7.64176C160.726 7.0631 161.762 6.73644 163.012 6.66178C163.311 6.64311 163.554 6.71777 163.74 6.88577C163.927 7.0351 164.03 7.29644 164.048 7.66977C164.067 8.02443 163.983 8.31376 163.796 8.53776C163.61 8.74309 163.32 8.86442 162.928 8.90175L162.424 8.92975C161.192 9.06042 160.24 9.46175 159.568 10.1337C158.915 10.8057 158.588 11.7297 158.588 12.9057V19.4576C158.588 19.887 158.476 20.2136 158.252 20.4376C158.047 20.6616 157.739 20.7736 157.328 20.7736ZM178.187 20.7736C177.814 20.7736 177.525 20.6616 177.319 20.4376C177.114 20.2136 177.011 19.915 177.011 19.5416V1.87383C177.011 1.48184 177.114 1.18317 177.319 0.977843C177.543 0.753846 177.842 0.641846 178.215 0.641846C178.551 0.641846 178.813 0.70718 178.999 0.837845C179.205 0.96851 179.391 1.19251 179.559 1.50984L187.063 15.5937H186.195L193.699 1.50984C193.867 1.19251 194.045 0.96851 194.231 0.837845C194.418 0.70718 194.679 0.641846 195.015 0.641846C195.389 0.641846 195.678 0.753846 195.883 0.977843C196.089 1.18317 196.191 1.48184 196.191 1.87383V19.5416C196.191 19.915 196.089 20.2136 195.883 20.4376C195.697 20.6616 195.407 20.7736 195.015 20.7736C194.623 20.7736 194.325 20.6616 194.119 20.4376C193.933 20.2136 193.839 19.915 193.839 19.5416V4.44981H194.455L187.735 17.0217C187.586 17.2643 187.427 17.451 187.259 17.5816C187.11 17.6936 186.895 17.7497 186.615 17.7497C186.354 17.7497 186.13 17.6843 185.943 17.5537C185.775 17.423 185.626 17.2457 185.495 17.0217L178.691 4.4218H179.363V19.5416C179.363 19.915 179.261 20.2136 179.055 20.4376C178.869 20.6616 178.579 20.7736 178.187 20.7736ZM207.99 20.8296C206.646 20.8296 205.48 20.5403 204.49 19.9616C203.501 19.383 202.736 18.5616 202.194 17.4977C201.653 16.4337 201.382 15.183 201.382 13.7457C201.382 12.663 201.532 11.6924 201.83 10.8337C202.148 9.95641 202.596 9.20975 203.174 8.59376C203.753 7.97776 204.444 7.5111 205.246 7.19377C206.068 6.85778 206.982 6.68978 207.99 6.68978C209.334 6.68978 210.501 6.97911 211.49 7.55777C212.48 8.13643 213.245 8.95775 213.786 10.0217C214.328 11.0671 214.598 12.3084 214.598 13.7457C214.598 14.8283 214.44 15.8083 214.122 16.6857C213.824 17.563 213.385 18.3096 212.806 18.9256C212.228 19.5416 211.528 20.0176 210.706 20.3536C209.904 20.6709 208.998 20.8296 207.99 20.8296ZM207.99 18.8136C208.812 18.8136 209.521 18.6176 210.118 18.2256C210.734 17.8336 211.201 17.2643 211.518 16.5177C211.854 15.771 212.022 14.847 212.022 13.7457C212.022 12.103 211.658 10.8524 210.93 9.99374C210.202 9.13508 209.222 8.70575 207.99 8.70575C207.188 8.70575 206.478 8.90175 205.862 9.29375C205.265 9.66708 204.798 10.2271 204.462 10.9737C204.126 11.7204 203.958 12.6444 203.958 13.7457C203.958 15.3883 204.322 16.6483 205.05 17.5256C205.797 18.3843 206.777 18.8136 207.99 18.8136ZM220.662 20.7736C220.27 20.7736 219.962 20.6616 219.738 20.4376C219.514 20.2136 219.402 19.887 219.402 19.4576V8.03376C219.402 7.60443 219.514 7.2871 219.738 7.08177C219.962 6.85777 220.27 6.74577 220.662 6.74577C221.054 6.74577 221.353 6.85777 221.558 7.08177C221.782 7.2871 221.894 7.60443 221.894 8.03376V10.3297L221.586 9.90974C221.978 8.84575 222.613 8.04309 223.49 7.50177C224.386 6.96044 225.404 6.68978 226.542 6.68978C227.644 6.68978 228.549 6.88577 229.258 7.27777C229.968 7.66977 230.499 8.26709 230.854 9.06975C231.209 9.87241 231.386 10.8897 231.386 12.1217V19.4576C231.386 19.887 231.274 20.2136 231.05 20.4376C230.845 20.6616 230.537 20.7736 230.126 20.7736C229.716 20.7736 229.398 20.6616 229.174 20.4376C228.95 20.2136 228.838 19.887 228.838 19.4576V12.2617C228.838 11.0484 228.605 10.1617 228.138 9.60174C227.672 9.04175 226.925 8.76175 225.898 8.76175C224.704 8.76175 223.742 9.13508 223.014 9.88174C222.305 10.6097 221.95 11.5991 221.95 12.8497V19.4576C221.95 20.335 221.521 20.7736 220.662 20.7736ZM243.266 20.8296C241.791 20.8296 240.522 20.5496 239.458 19.9896C238.412 19.411 237.6 18.599 237.022 17.5537C236.443 16.4897 236.154 15.239 236.154 13.8017C236.154 12.383 236.434 11.1417 236.994 10.0777C237.572 9.01375 238.356 8.18309 239.346 7.58576C240.354 6.98844 241.502 6.68978 242.79 6.68978C243.704 6.68978 244.525 6.84844 245.253 7.16577C246 7.46443 246.635 7.90309 247.157 8.48175C247.68 9.06041 248.072 9.76974 248.333 10.6097C248.613 11.4311 248.753 12.3644 248.753 13.4097C248.753 13.7084 248.66 13.9417 248.473 14.1097C248.305 14.259 248.053 14.3337 247.717 14.3337H238.142V12.7097H247.073L246.597 13.1017C246.597 12.131 246.448 11.3097 246.149 10.6377C245.869 9.94707 245.449 9.42441 244.889 9.06975C244.348 8.71509 243.667 8.53776 242.846 8.53776C241.95 8.53776 241.184 8.75242 240.55 9.18175C239.915 9.59241 239.43 10.1804 239.094 10.9457C238.758 11.6924 238.59 12.5604 238.59 13.5497V13.7177C238.59 15.3977 238.991 16.667 239.794 17.5256C240.596 18.3843 241.754 18.8136 243.266 18.8136C243.863 18.8136 244.469 18.739 245.085 18.5896C245.72 18.4403 246.327 18.1696 246.905 17.7776C247.185 17.6096 247.437 17.535 247.661 17.5537C247.904 17.5537 248.1 17.6283 248.249 17.7776C248.399 17.9083 248.492 18.0763 248.529 18.2816C248.567 18.4683 248.539 18.6736 248.445 18.8976C248.352 19.1216 248.175 19.3176 247.913 19.4856C247.297 19.915 246.56 20.251 245.701 20.4936C244.861 20.7176 244.049 20.8296 243.266 20.8296ZM256.407 25.8136C256.108 25.8136 255.856 25.7296 255.651 25.5616C255.464 25.4122 255.352 25.1976 255.315 24.9176C255.296 24.6562 255.352 24.3762 255.483 24.0776L257.387 19.7656V20.8296L252.095 8.50976C251.964 8.19243 251.917 7.90309 251.955 7.64176C251.992 7.38043 252.113 7.16577 252.319 6.99777C252.543 6.82978 252.841 6.74577 253.215 6.74577C253.532 6.74577 253.784 6.82045 253.971 6.96978C254.157 7.11911 254.335 7.38044 254.503 7.75377L258.899 18.5896H258.115L262.595 7.75377C262.744 7.38044 262.921 7.11911 263.127 6.96978C263.332 6.82045 263.612 6.74577 263.967 6.74577C264.284 6.74577 264.527 6.82978 264.695 6.99777C264.881 7.16577 264.993 7.38043 265.031 7.64176C265.068 7.90309 265.012 8.18309 264.863 8.48175L257.807 24.8056C257.62 25.1976 257.424 25.4589 257.219 25.5896C257.032 25.7389 256.761 25.8136 256.407 25.8136Z" fill="white"/>
</svg>
