<svg width="157" height="51" viewBox="0 0 157 51" fill="none" xmlns="http://www.w3.org/2000/svg">
<path d="M22.8269 11.4746C22.6521 9.83435 21.9129 8.55719 20.6112 7.64316C19.3214 6.72913 17.6432 6.27211 15.5775 6.27211C14.1252 6.27211 12.8796 6.49125 11.8398 6.92948C10.8007 7.3677 10.0056 7.96242 9.45489 8.71368C8.90361 9.46494 8.62237 10.3227 8.60992 11.2867C8.60992 12.0881 8.79099 12.783 9.15436 13.3715C9.53018 13.9599 10.0373 14.4608 10.6757 14.874C11.3141 15.2746 12.0215 15.6127 12.7981 15.8882C13.574 16.1636 14.3567 16.3953 15.1457 16.5831L18.7514 17.4846C20.2043 17.8227 21.5999 18.2797 22.9395 18.8557C24.2922 19.4316 25.5006 20.1578 26.5646 21.0343C27.6416 21.9107 28.4928 22.9687 29.1188 24.2083C29.7447 25.4479 30.0577 26.9003 30.0577 28.5656C30.0577 30.8194 29.4821 32.8039 28.3298 34.5193C27.1781 36.2221 25.513 37.5556 23.334 38.5197C21.1681 39.4713 18.5448 39.9471 15.4649 39.9471C12.4726 39.9471 9.87427 39.4838 7.67039 38.5573C5.47957 37.6307 3.76411 36.2785 2.52466 34.5005C1.29765 32.7225 0.633746 30.5564 0.533569 28.0022H7.38914C7.48932 29.3419 7.90247 30.4562 8.62859 31.3452C9.35472 32.2342 10.2999 32.8978 11.4647 33.336C12.6413 33.7743 13.956 33.9934 15.4082 33.9934C16.9233 33.9934 18.2505 33.768 19.3904 33.3172C20.5421 32.854 21.4437 32.2154 22.0946 31.4016C22.746 30.5752 23.0777 29.6111 23.0901 28.5093C23.0777 27.5076 22.7834 26.6812 22.2072 26.0301C21.6316 25.3665 20.824 24.8155 19.7843 24.3773C18.7576 23.9266 17.5561 23.5259 16.1786 23.1753L11.8025 22.0484C8.63481 21.2346 6.1304 20.0013 4.28989 18.3486C2.46182 16.6833 1.54778 14.4733 1.54778 11.7187C1.54778 9.45244 2.16129 7.46788 3.3883 5.765C4.62775 4.06219 6.31208 2.74123 8.44068 1.80218C10.5693 0.850564 12.9797 0.374756 15.6714 0.374756C18.4011 0.374756 20.7923 0.850564 22.8462 1.80218C24.912 2.74123 26.5334 4.04968 27.7101 5.72748C28.8873 7.39272 29.4946 9.30846 29.5319 11.4746H22.8269ZM35.4404 50.1827V10.5167H42.1268V15.2872H42.5213C42.8716 14.586 43.3662 13.841 44.0046 13.0522C44.6436 12.2508 45.5073 11.5685 46.5968 11.005C47.6863 10.4291 49.0757 10.1411 50.7662 10.1411C52.995 10.1411 55.0041 10.7108 56.7949 11.8502C58.598 12.9771 60.0254 14.6486 61.077 16.8648C62.1416 19.0685 62.6735 21.773 62.6735 24.9783C62.6735 28.1461 62.154 30.8381 61.1149 33.0544C60.0752 35.2705 58.6603 36.9609 56.8701 38.1253C55.0794 39.2898 53.051 39.872 50.7849 39.872C49.1323 39.872 47.7609 39.5965 46.6721 39.0456C45.5826 38.4946 44.7058 37.831 44.0426 37.0548C43.3911 36.2659 42.884 35.5209 42.5213 34.8198H42.2394V50.1827H35.4404ZM42.1081 24.9408C42.1081 26.8064 42.3707 28.4404 42.8965 29.8427C43.4353 31.2451 44.205 32.3406 45.2067 33.1295C46.221 33.9057 47.4479 34.2939 48.8877 34.2939C50.3904 34.2939 51.6485 33.8932 52.6628 33.0919C53.677 32.278 54.441 31.1699 54.9543 29.7676C55.4801 28.3527 55.7433 26.7438 55.7433 24.9408C55.7433 23.1503 55.4864 21.5601 54.973 20.1703C54.4597 18.7805 53.6962 17.6912 52.682 16.9023C51.6678 16.1136 50.4028 15.7191 48.8877 15.7191C47.4355 15.7191 46.2023 16.1011 45.1881 16.8648C44.1739 17.6286 43.4036 18.6991 42.8778 20.0764C42.3645 21.4537 42.1081 23.0751 42.1081 24.9408ZM80.7383 39.9283C77.8456 39.9283 75.3481 39.3273 73.2444 38.1253C71.1531 36.9108 69.5447 35.1954 68.4179 32.9792C67.2904 30.7505 66.7273 28.1273 66.7273 25.1098C66.7273 22.1424 67.2904 19.538 68.4179 17.2968C69.5571 15.043 71.1469 13.2901 73.1877 12.038C75.2292 10.7734 77.6266 10.1411 80.3812 10.1411C82.1595 10.1411 83.837 10.4291 85.4149 11.005C87.0047 11.5685 88.4071 12.4449 89.6217 13.6344C90.8487 14.8239 91.8131 16.3389 92.5137 18.1795C93.215 20.0076 93.5659 22.1862 93.5659 24.7154V26.8002H69.9199V22.2175H87.0488C87.0364 20.9153 86.7545 19.7571 86.2032 18.7429C85.6526 17.7162 84.8823 16.9086 83.8936 16.3201C82.9167 15.7316 81.7774 15.4374 80.4751 15.4374C79.0851 15.4374 77.8643 15.7755 76.8128 16.4516C75.7612 17.1152 74.9411 17.9917 74.3525 19.081C73.7764 20.1578 73.4821 21.341 73.4696 22.6307V26.6311C73.4696 28.3089 73.7764 29.7488 74.3899 30.9508C75.0034 32.1403 75.8614 33.0544 76.9633 33.6929C78.0647 34.3189 79.3545 34.632 80.8323 34.632C81.821 34.632 82.7163 34.4942 83.5177 34.2188C84.3192 33.9308 85.0142 33.5113 85.6022 32.9604C86.1908 32.4095 86.6357 31.7271 86.9362 30.9132L93.284 31.6269C92.8833 33.3047 92.1199 34.7697 90.993 36.0218C89.8787 37.2613 88.4513 38.2255 86.7103 38.9141C84.97 39.5902 82.9795 39.9283 80.7383 39.9283ZM105.588 22.4616V39.3649H98.7888V10.5167H105.287V15.4187H105.625C106.289 13.8035 107.347 12.5201 108.799 11.5685C110.264 10.6168 112.073 10.1411 114.227 10.1411C116.218 10.1411 117.952 10.5668 119.43 11.4182C120.919 12.2696 122.071 13.5029 122.885 15.1181C123.712 16.7333 124.119 18.6929 124.106 20.9967V39.3649H117.307V22.0484C117.307 20.1202 116.806 18.6115 115.804 17.5221C114.815 16.4328 113.444 15.8882 111.692 15.8882C110.502 15.8882 109.444 16.1511 108.518 16.677C107.604 17.1904 106.883 17.9353 106.357 18.912C105.844 19.8886 105.588 21.0718 105.588 22.4616ZM141.194 39.872C138.928 39.872 136.899 39.2898 135.109 38.1253C133.319 36.9609 131.904 35.2705 130.864 33.0544C129.825 30.8381 129.305 28.1461 129.305 24.9783C129.305 21.773 129.831 19.0685 130.883 16.8648C131.947 14.6486 133.381 12.9771 135.184 11.8502C136.987 10.7108 138.996 10.1411 141.213 10.1411C142.903 10.1411 144.293 10.4291 145.382 11.005C146.472 11.5685 147.335 12.2508 147.974 13.0522C148.613 13.841 149.107 14.586 149.458 15.2872H149.739V0.900652H156.557V39.3649H149.871V34.8198H149.458C149.107 35.5209 148.6 36.2659 147.936 37.0548C147.273 37.831 146.396 38.4946 145.307 39.0456C144.218 39.5965 142.847 39.872 141.194 39.872ZM143.091 34.2939C144.531 34.2939 145.758 33.9057 146.772 33.1295C147.786 32.3406 148.556 31.2451 149.082 29.8427C149.608 28.4404 149.871 26.8064 149.871 24.9408C149.871 23.0751 149.608 21.4537 149.082 20.0764C148.568 18.6991 147.805 17.6286 146.791 16.8648C145.789 16.1011 144.556 15.7191 143.091 15.7191C141.576 15.7191 140.311 16.1136 139.297 16.9023C138.283 17.6912 137.519 18.7805 137.006 20.1703C136.493 21.5601 136.236 23.1503 136.236 24.9408C136.236 26.7438 136.493 28.3527 137.006 29.7676C137.532 31.1699 138.302 32.278 139.316 33.0919C140.343 33.8932 141.601 34.2939 143.091 34.2939Z" fill="#00BC73"/>
</svg>
