<svg width="102" height="40" viewBox="0 0 102 40" fill="none" xmlns="http://www.w3.org/2000/svg">
<path d="M0.543701 39.3646V0.900391H14.9679C17.9228 0.900391 20.4023 1.41378 22.4052 2.4405C24.4212 3.46721 25.9425 4.90708 26.9692 6.76016C28.0083 8.60074 28.5278 10.7481 28.5278 13.2022C28.5278 15.6688 28.0021 17.8099 26.9505 19.6254C25.9114 21.4284 24.3776 22.8245 22.3492 23.8136C20.3208 24.7903 17.8288 25.2786 14.8739 25.2786H4.60055V19.4939H13.935C15.6629 19.4939 17.0778 19.256 18.1798 18.7802C19.2817 18.2919 20.0956 17.5845 20.6213 16.6579C21.1595 15.7189 21.429 14.567 21.429 13.2022C21.429 11.8374 21.1595 10.673 20.6213 9.70884C20.0825 8.73221 19.2624 7.99352 18.1611 7.49263C17.0592 6.97931 15.638 6.72264 13.8977 6.72264H7.51188V39.3646H0.543701ZM20.4148 21.9355L29.9365 39.3646H22.1613L12.8082 21.9355H20.4148ZM46.4706 39.928C43.5786 39.928 41.0804 39.327 38.9767 38.125C36.886 36.9105 35.277 35.1951 34.1502 32.9789C33.0233 30.7502 32.4596 28.1271 32.4596 25.1095C32.4596 22.1421 33.0233 19.5378 34.1502 17.2965C35.2894 15.0428 36.8798 13.2898 38.9207 12.0377C40.9615 10.7731 43.3589 10.1408 46.1141 10.1408C47.8918 10.1408 49.5699 10.4288 51.1472 11.0048C52.7376 11.5682 54.1394 12.4447 55.354 13.6341C56.581 14.8236 57.5454 16.3387 58.2467 18.1792C58.9479 20.0073 59.2982 22.1859 59.2982 24.7152V26.7999H35.6528V22.2172H52.7811C52.7687 20.9151 52.4868 19.7569 51.9362 18.7427C51.3849 17.7159 50.6152 16.9084 49.6259 16.3199C48.649 15.7314 47.5097 15.4371 46.2074 15.4371C44.818 15.4371 43.5972 15.7752 42.5451 16.4513C41.4935 17.1149 40.6734 17.9915 40.0848 19.0808C39.5093 20.1576 39.215 21.3408 39.2025 22.6304V26.6308C39.2025 28.3086 39.5093 29.7486 40.1228 30.9506C40.7363 32.1401 41.5937 33.0541 42.6956 33.6926C43.7976 34.3187 45.0868 34.6317 46.5646 34.6317C47.5539 34.6317 48.4493 34.494 49.2501 34.2185C50.0515 33.9305 50.7465 33.5111 51.3351 32.9601C51.9237 32.4092 52.368 31.7268 52.6685 30.913L59.0163 31.6267C58.6156 33.3045 57.8522 34.7694 56.7253 36.0215C55.611 37.2611 54.1836 38.2252 52.4433 38.9139C50.7029 39.59 48.7118 39.928 46.4706 39.928ZM72.8227 39.9468C70.9946 39.9468 69.3482 39.6213 67.8829 38.9702C66.4307 38.3066 65.2789 37.33 64.4271 36.0403C63.5884 34.7506 63.169 33.1605 63.169 31.2698C63.169 29.6421 63.4695 28.2961 64.0706 27.2318C64.6717 26.1675 65.4917 25.3162 66.5308 24.6776C67.5699 24.039 68.7409 23.557 70.0432 23.2314C71.3574 22.8934 72.7163 22.6492 74.1187 22.499C75.8087 22.3237 77.18 22.1671 78.2316 22.0294C79.2831 21.8792 80.0472 21.6538 80.5232 21.3533C81.011 21.0402 81.2555 20.5582 81.2555 19.9071V19.7944C81.2555 18.3796 80.8362 17.284 79.9968 16.5077C79.1581 15.7314 77.9497 15.3432 76.3724 15.3432C74.7067 15.3432 73.3858 15.7064 72.4095 16.4326C71.4451 17.1588 70.7943 18.0165 70.4564 19.0056L64.1079 18.1041C64.6088 16.3512 65.4351 14.8862 66.5874 13.7093C67.7392 12.5198 69.1479 11.6308 70.8129 11.0423C72.478 10.4413 74.3191 10.1408 76.3345 10.1408C77.7245 10.1408 79.1083 10.3036 80.4852 10.6292C81.8628 10.9547 83.1209 11.4931 84.2602 12.2443C85.4001 12.9831 86.3135 13.991 87.0023 15.2681C87.7036 16.5452 88.0545 18.1417 88.0545 20.0574V39.3646H81.5181V35.4017H81.2929C80.8797 36.2031 80.2973 36.9543 79.5463 37.6555C78.8077 38.3442 77.8751 38.9013 76.7476 39.327C75.6332 39.7402 74.3253 39.9468 72.8227 39.9468ZM74.5879 34.951C75.953 34.951 77.1359 34.6818 78.1376 34.1434C79.1394 33.5924 79.9097 32.8662 80.4479 31.9647C80.9986 31.0633 81.2742 30.0803 81.2742 29.0161V25.6166C81.0614 25.792 80.698 25.9547 80.1847 26.1049C79.6838 26.2552 79.1207 26.3867 78.4948 26.4994C77.8682 26.6121 77.2485 26.7122 76.635 26.7999C76.0215 26.8875 75.4895 26.9627 75.039 27.0253C74.0248 27.163 73.117 27.3883 72.3156 27.7014C71.5142 28.0144 70.882 28.4526 70.4184 29.0161C69.9555 29.567 69.7234 30.2807 69.7234 31.1571C69.7234 32.4092 70.1807 33.3546 71.0948 33.9931C72.0088 34.6317 73.173 34.951 74.5879 34.951ZM101.161 0.900391V39.3646H94.3619V0.900391H101.161Z" fill="white"/>
</svg>
